# xmcd
#
# Track frame offsets:
#	150
#	14812
#	30074
#	45261
#	63148
#	83735
#	101622
#	117934
#	135971
#	149658
#	168445
#	188807
#	203619
#	219781
#	235268
#	250455
#	266767
#	281804
#	296316
#
# Disc length: 4133 seconds
#
# Revision: 1
# Processed by: cddbd v1.5.2PL0 Copyright (c) Steve Scherf et al.
# Submitted via: audiograbber 1.83.01
#
DISCID=08102313
DTITLE=Various Artist - Promo Only Country Radio 2011-07
DYEAR=2011
DGENRE=Country
TTITLE0=LoCash Cowboys - You Got Me
TTITLE1=Darius Rucker - I Got Nothin'
TTITLE2=Ash Bowers - I Still Believe In That
TTITLE3=Hunter Hayes - Storm Warning
TTITLE4=Brad Paisley ft Alabama - Old Alabama
TTITLE5=Josh Kelley - Gone Like That
TTITLE6=Burns and Poe - Second Chance
TTITLE7=Kenny Chesney ft Grace Potter - You and Tequila
TTITLE8=Thompson Square - I Got You
TTITLE9=Kacey Jones - Donald Trump's Hair
TTITLE10=Sugarland - Tonight
TTITLE11=Joe Nichols - Take It Off
TTITLE12=Jennette McCurdy - Generation Love
TTITLE13=James Wesley - Didn't I
TTITLE14=Zac Brown Band ft Jimmy Buffet - Knee Deep
TTITLE15=Lady Antebellum - Just A Kiss
TTITLE16=Mark Cooke - I Love It
TTITLE17=The Lunabelles - A Place to Shine (Single Edit)
TTITLE18=Scooter Lee - Boogie Woogie Rhythm
EXTD=
EXTT0=
EXTT1=
EXTT2=
EXTT3=
EXTT4=
EXTT5=
EXTT6=
EXTT7=
EXTT8=
EXTT9=
EXTT10=
EXTT11=
EXTT12=
EXTT13=
EXTT14=
EXTT15=
EXTT16=
EXTT17=
EXTT18=
PLAYORDER=
